<mxfile host="app.diagrams.net" modified="2024-01-11T00:44:30.209Z" agent="Mozilla/5.0 (Windows NT 10.0; Win64; x64) AppleWebKit/537.36 (KHTML, like Gecko) Chrome/120.0.0.0 Safari/537.36" etag="5-ndmrbsax2lxSCKhpw9" version="22.1.18" type="device">
  <diagram id="94Z2-I9QZ_mszZyGxkvA" name="第 1 页">
    <mxGraphModel dx="-2336" dy="1480" grid="0" gridSize="10" guides="1" tooltips="1" connect="1" arrows="1" fold="1" page="0" pageScale="1" pageWidth="827" pageHeight="1169" background="none" math="0" shadow="0">
      <root>
        <mxCell id="0" />
        <mxCell id="1" parent="0" />
        <mxCell id="SrKy8WlbvXvoebuaYB2F-6" style="edgeStyle=none;shape=connector;rounded=0;orthogonalLoop=1;jettySize=auto;html=1;entryX=0;entryY=0;entryDx=0;entryDy=0;labelBackgroundColor=default;strokeColor=default;align=center;verticalAlign=middle;fontFamily=Helvetica;fontSize=11;fontColor=default;endArrow=none;" parent="1" source="ymwuQP8FwIJ5a87mYlli-214" target="SrKy8WlbvXvoebuaYB2F-5" edge="1">
          <mxGeometry relative="1" as="geometry" />
        </mxCell>
        <mxCell id="SrKy8WlbvXvoebuaYB2F-8" value="&lt;font style=&quot;font-size: 20px;&quot;&gt;N&lt;/font&gt;" style="edgeLabel;html=1;align=center;verticalAlign=middle;resizable=0;points=[];fontSize=11;fontFamily=Helvetica;fontColor=default;" parent="SrKy8WlbvXvoebuaYB2F-6" vertex="1" connectable="0">
          <mxGeometry x="0.5244" y="-1" relative="1" as="geometry">
            <mxPoint as="offset" />
          </mxGeometry>
        </mxCell>
        <mxCell id="ymwuQP8FwIJ5a87mYlli-214" value="account" style="whiteSpace=wrap;html=1;align=center;" parent="1" vertex="1">
          <mxGeometry x="3948.6826171875" y="-280.09517996651766" width="100" height="40" as="geometry" />
        </mxCell>
        <mxCell id="ymwuQP8FwIJ5a87mYlli-215" style="edgeStyle=none;shape=connector;rounded=0;orthogonalLoop=1;jettySize=auto;html=1;entryX=0.5;entryY=0;entryDx=0;entryDy=0;labelBackgroundColor=default;strokeColor=default;align=center;verticalAlign=middle;fontFamily=Helvetica;fontSize=11;fontColor=default;endArrow=none;" parent="1" source="ymwuQP8FwIJ5a87mYlli-214" target="ymwuQP8FwIJ5a87mYlli-338" edge="1">
          <mxGeometry relative="1" as="geometry">
            <mxPoint x="3586.2120289522054" y="-45.09517996651766" as="sourcePoint" />
            <mxPoint x="3662.6826171875" y="19.904820033482338" as="targetPoint" />
          </mxGeometry>
        </mxCell>
        <mxCell id="TDinRQ2YjaR9fbdQPydo-14" value="&lt;font style=&quot;font-size: 20px;&quot;&gt;1&lt;/font&gt;" style="edgeLabel;html=1;align=center;verticalAlign=middle;resizable=0;points=[];fontSize=11;fontFamily=Helvetica;fontColor=default;" parent="ymwuQP8FwIJ5a87mYlli-215" vertex="1" connectable="0">
          <mxGeometry x="0.6232" y="-2" relative="1" as="geometry">
            <mxPoint as="offset" />
          </mxGeometry>
        </mxCell>
        <mxCell id="ymwuQP8FwIJ5a87mYlli-216" value="transaction" style="whiteSpace=wrap;html=1;align=center;" parent="1" vertex="1">
          <mxGeometry x="4208.6826171875" y="-85.09517996651766" width="100" height="40" as="geometry" />
        </mxCell>
        <mxCell id="ymwuQP8FwIJ5a87mYlli-217" value="name" style="ellipse;whiteSpace=wrap;html=1;align=center;" parent="1" vertex="1">
          <mxGeometry x="3738.6826171875" y="-360.09517996651766" width="100" height="40" as="geometry" />
        </mxCell>
        <mxCell id="ymwuQP8FwIJ5a87mYlli-218" value="account_uuid" style="ellipse;whiteSpace=wrap;html=1;align=center;fontStyle=4;" parent="1" vertex="1">
          <mxGeometry x="3728.6826171875" y="-310.09517996651766" width="100" height="40" as="geometry" />
        </mxCell>
        <mxCell id="ymwuQP8FwIJ5a87mYlli-219" value="pwd" style="ellipse;whiteSpace=wrap;html=1;align=center;" parent="1" vertex="1">
          <mxGeometry x="3762.6826171875" y="-420.09517996651766" width="100" height="40" as="geometry" />
        </mxCell>
        <mxCell id="ymwuQP8FwIJ5a87mYlli-220" value="imageurl" style="ellipse;whiteSpace=wrap;html=1;align=center;" parent="1" vertex="1">
          <mxGeometry x="3798.6826171875" y="-480.09517996651766" width="100" height="40" as="geometry" />
        </mxCell>
        <mxCell id="ymwuQP8FwIJ5a87mYlli-221" value="email" style="ellipse;whiteSpace=wrap;html=1;align=center;" parent="1" vertex="1">
          <mxGeometry x="3888.6826171875" y="-520.0951799665177" width="100" height="40" as="geometry" />
        </mxCell>
        <mxCell id="ymwuQP8FwIJ5a87mYlli-222" value="phone" style="ellipse;whiteSpace=wrap;html=1;align=center;" parent="1" vertex="1">
          <mxGeometry x="4005.6826171875" y="-532.0951799665177" width="100" height="40" as="geometry" />
        </mxCell>
        <mxCell id="ymwuQP8FwIJ5a87mYlli-223" value="address" style="ellipse;whiteSpace=wrap;html=1;align=center;" parent="1" vertex="1">
          <mxGeometry x="4178.6826171875" y="-452.09517996651766" width="100" height="40" as="geometry" />
        </mxCell>
        <mxCell id="ymwuQP8FwIJ5a87mYlli-224" value="credit_card" style="ellipse;whiteSpace=wrap;html=1;align=center;" parent="1" vertex="1">
          <mxGeometry x="4108.6826171875" y="-500.09517996651766" width="100" height="40" as="geometry" />
        </mxCell>
        <mxCell id="ymwuQP8FwIJ5a87mYlli-225" value="birthday" style="ellipse;whiteSpace=wrap;html=1;align=center;" parent="1" vertex="1">
          <mxGeometry x="4188.6826171875" y="-380.09517996651766" width="100" height="40" as="geometry" />
        </mxCell>
        <mxCell id="ymwuQP8FwIJ5a87mYlli-226" value="update_time" style="ellipse;whiteSpace=wrap;html=1;align=center;" parent="1" vertex="1">
          <mxGeometry x="4228.6826171875" y="-215.09517996651766" width="100" height="40" as="geometry" />
        </mxCell>
        <mxCell id="ymwuQP8FwIJ5a87mYlli-227" value="transaction_uuid" style="ellipse;whiteSpace=wrap;html=1;align=center;fontStyle=4;" parent="1" vertex="1">
          <mxGeometry x="4358.6826171875" y="-205.09517996651766" width="100" height="40" as="geometry" />
        </mxCell>
        <mxCell id="ymwuQP8FwIJ5a87mYlli-228" value="name" style="ellipse;whiteSpace=wrap;html=1;align=center;" parent="1" vertex="1">
          <mxGeometry x="3362.6826171875" y="-144.09517996651766" width="100" height="40" as="geometry" />
        </mxCell>
        <mxCell id="ymwuQP8FwIJ5a87mYlli-229" value="description" style="ellipse;whiteSpace=wrap;html=1;align=center;" parent="1" vertex="1">
          <mxGeometry x="3362.6826171875" y="-87.09517996651766" width="100" height="40" as="geometry" />
        </mxCell>
        <mxCell id="ymwuQP8FwIJ5a87mYlli-231" value="update_time" style="ellipse;whiteSpace=wrap;html=1;align=center;" parent="1" vertex="1">
          <mxGeometry x="3362.6826171875" y="24.904820033482338" width="100" height="40" as="geometry" />
        </mxCell>
        <mxCell id="ymwuQP8FwIJ5a87mYlli-232" value="stock" style="ellipse;whiteSpace=wrap;html=1;align=center;" parent="1" vertex="1">
          <mxGeometry x="3328.6826171875" y="279.90482003348234" width="100" height="40" as="geometry" />
        </mxCell>
        <mxCell id="ymwuQP8FwIJ5a87mYlli-233" value="description" style="ellipse;whiteSpace=wrap;html=1;align=center;" parent="1" vertex="1">
          <mxGeometry x="3512.6826171875" y="409.90482003348234" width="100" height="40" as="geometry" />
        </mxCell>
        <mxCell id="ymwuQP8FwIJ5a87mYlli-234" value="price" style="ellipse;whiteSpace=wrap;html=1;align=center;" parent="1" vertex="1">
          <mxGeometry x="3402.6826171875" y="384.90482003348234" width="100" height="40" as="geometry" />
        </mxCell>
        <mxCell id="ymwuQP8FwIJ5a87mYlli-235" value="tags" style="ellipse;whiteSpace=wrap;html=1;align=center;" parent="1" vertex="1">
          <mxGeometry x="3608.6826171875" y="374.90482003348234" width="100" height="40" as="geometry" />
        </mxCell>
        <mxCell id="ymwuQP8FwIJ5a87mYlli-236" value="name" style="ellipse;whiteSpace=wrap;html=1;align=center;" parent="1" vertex="1">
          <mxGeometry x="3348.6826171875" y="224.90482003348234" width="100" height="40" as="geometry" />
        </mxCell>
        <mxCell id="ymwuQP8FwIJ5a87mYlli-237" value="update_time" style="ellipse;whiteSpace=wrap;html=1;align=center;" parent="1" vertex="1">
          <mxGeometry x="3662.6826171875" y="329.90482003348234" width="100" height="40" as="geometry" />
        </mxCell>
        <mxCell id="ymwuQP8FwIJ5a87mYlli-238" value="text" style="ellipse;whiteSpace=wrap;html=1;align=center;strokeColor=#000000;" parent="1" vertex="1">
          <mxGeometry x="3878.6826171874995" y="311.00482003348236" width="100" height="40" as="geometry" />
        </mxCell>
        <mxCell id="ymwuQP8FwIJ5a87mYlli-241" value="update_time" style="ellipse;whiteSpace=wrap;html=1;align=center;strokeColor=#000000;" parent="1" vertex="1">
          <mxGeometry x="4158.6826171875" y="198.00482003348236" width="100" height="40" as="geometry" />
        </mxCell>
        <mxCell id="ymwuQP8FwIJ5a87mYlli-242" value="transaction_date" style="ellipse;whiteSpace=wrap;html=1;align=center;" parent="1" vertex="1">
          <mxGeometry x="4358.6826171875" y="-147.09517996651766" width="100" height="40" as="geometry" />
        </mxCell>
        <mxCell id="ymwuQP8FwIJ5a87mYlli-243" value="receive_date" style="ellipse;whiteSpace=wrap;html=1;align=center;" parent="1" vertex="1">
          <mxGeometry x="4358.6826171875" y="-90.09517996651766" width="100" height="40" as="geometry" />
        </mxCell>
        <mxCell id="ymwuQP8FwIJ5a87mYlli-244" value="status" style="ellipse;whiteSpace=wrap;html=1;align=center;" parent="1" vertex="1">
          <mxGeometry x="4358.6826171875" y="-32.09517996651766" width="100" height="40" as="geometry" />
        </mxCell>
        <mxCell id="ymwuQP8FwIJ5a87mYlli-245" value="request" style="shape=rhombus;perimeter=rhombusPerimeter;whiteSpace=wrap;html=1;align=center;fillColor=#dae8fc;strokeColor=#6c8ebf;" parent="1" vertex="1">
          <mxGeometry x="4068.6826171875" y="-210.09517996651766" width="120" height="60" as="geometry" />
        </mxCell>
        <mxCell id="ymwuQP8FwIJ5a87mYlli-246" value="is subscribed to" style="shape=rhombus;perimeter=rhombusPerimeter;whiteSpace=wrap;html=1;align=center;fillColor=#dae8fc;strokeColor=#6c8ebf;" parent="1" vertex="1">
          <mxGeometry x="3668.0026171875" y="-204.09517996651766" width="120" height="60" as="geometry" />
        </mxCell>
        <mxCell id="ymwuQP8FwIJ5a87mYlli-247" value="has" style="shape=rhombus;perimeter=rhombusPerimeter;whiteSpace=wrap;html=1;align=center;fillColor=#dae8fc;strokeColor=#6c8ebf;" parent="1" vertex="1">
          <mxGeometry x="3712.0026171875" y="-97.09517996651766" width="120" height="60" as="geometry" />
        </mxCell>
        <mxCell id="ymwuQP8FwIJ5a87mYlli-248" value="consists of" style="shape=rhombus;perimeter=rhombusPerimeter;whiteSpace=wrap;html=1;align=center;fillColor=#dae8fc;strokeColor=#6c8ebf;" parent="1" vertex="1">
          <mxGeometry x="4048.6826171875" y="79.90482003348234" width="120" height="60" as="geometry" />
        </mxCell>
        <mxCell id="ymwuQP8FwIJ5a87mYlli-249" value="" style="endArrow=none;html=1;rounded=0;" parent="1" source="ymwuQP8FwIJ5a87mYlli-218" target="ymwuQP8FwIJ5a87mYlli-214" edge="1">
          <mxGeometry relative="1" as="geometry">
            <mxPoint x="3848.6826171875" y="-190.09517996651766" as="sourcePoint" />
            <mxPoint x="4008.6826171875" y="-190.09517996651766" as="targetPoint" />
          </mxGeometry>
        </mxCell>
        <mxCell id="ymwuQP8FwIJ5a87mYlli-250" value="" style="endArrow=none;html=1;rounded=0;" parent="1" source="ymwuQP8FwIJ5a87mYlli-217" target="ymwuQP8FwIJ5a87mYlli-214" edge="1">
          <mxGeometry relative="1" as="geometry">
            <mxPoint x="3818.6826171875" y="-317.09517996651766" as="sourcePoint" />
            <mxPoint x="3937.6826171875" y="-303.09517996651766" as="targetPoint" />
          </mxGeometry>
        </mxCell>
        <mxCell id="ymwuQP8FwIJ5a87mYlli-251" value="" style="endArrow=none;html=1;rounded=0;" parent="1" source="ymwuQP8FwIJ5a87mYlli-219" target="ymwuQP8FwIJ5a87mYlli-214" edge="1">
          <mxGeometry relative="1" as="geometry">
            <mxPoint x="3858.6826171875" y="-344.09517996651766" as="sourcePoint" />
            <mxPoint x="3968.6826171875" y="-270.09517996651766" as="targetPoint" />
          </mxGeometry>
        </mxCell>
        <mxCell id="ymwuQP8FwIJ5a87mYlli-252" value="" style="endArrow=none;html=1;rounded=0;" parent="1" source="ymwuQP8FwIJ5a87mYlli-221" target="ymwuQP8FwIJ5a87mYlli-214" edge="1">
          <mxGeometry relative="1" as="geometry">
            <mxPoint x="3999.6826171875" y="-367.09517996651766" as="sourcePoint" />
            <mxPoint x="3988.6826171875" y="-290.09517996651766" as="targetPoint" />
          </mxGeometry>
        </mxCell>
        <mxCell id="ymwuQP8FwIJ5a87mYlli-253" value="" style="endArrow=none;html=1;rounded=0;" parent="1" source="ymwuQP8FwIJ5a87mYlli-220" target="ymwuQP8FwIJ5a87mYlli-214" edge="1">
          <mxGeometry relative="1" as="geometry">
            <mxPoint x="3999.6826171875" y="-384.09517996651766" as="sourcePoint" />
            <mxPoint x="4118.6826171875" y="-370.09517996651766" as="targetPoint" />
          </mxGeometry>
        </mxCell>
        <mxCell id="ymwuQP8FwIJ5a87mYlli-254" value="" style="endArrow=none;html=1;rounded=0;" parent="1" source="ymwuQP8FwIJ5a87mYlli-223" target="ymwuQP8FwIJ5a87mYlli-214" edge="1">
          <mxGeometry relative="1" as="geometry">
            <mxPoint x="4024.6826171875" y="-317.09517996651766" as="sourcePoint" />
            <mxPoint x="4143.6826171875" y="-303.09517996651766" as="targetPoint" />
          </mxGeometry>
        </mxCell>
        <mxCell id="ymwuQP8FwIJ5a87mYlli-255" value="" style="endArrow=none;html=1;rounded=0;" parent="1" source="ymwuQP8FwIJ5a87mYlli-214" target="ymwuQP8FwIJ5a87mYlli-224" edge="1">
          <mxGeometry relative="1" as="geometry">
            <mxPoint x="4024.6826171875" y="-304.09517996651766" as="sourcePoint" />
            <mxPoint x="4143.6826171875" y="-290.09517996651766" as="targetPoint" />
          </mxGeometry>
        </mxCell>
        <mxCell id="ymwuQP8FwIJ5a87mYlli-256" value="" style="endArrow=none;html=1;rounded=0;" parent="1" source="ymwuQP8FwIJ5a87mYlli-222" target="ymwuQP8FwIJ5a87mYlli-214" edge="1">
          <mxGeometry relative="1" as="geometry">
            <mxPoint x="4024.6826171875" y="-344.09517996651766" as="sourcePoint" />
            <mxPoint x="4143.6826171875" y="-330.09517996651766" as="targetPoint" />
          </mxGeometry>
        </mxCell>
        <mxCell id="ymwuQP8FwIJ5a87mYlli-257" value="" style="endArrow=none;html=1;rounded=0;" parent="1" source="ymwuQP8FwIJ5a87mYlli-214" target="ymwuQP8FwIJ5a87mYlli-225" edge="1">
          <mxGeometry relative="1" as="geometry">
            <mxPoint x="4018.6826171875" y="-290.09517996651766" as="sourcePoint" />
            <mxPoint x="4137.6826171875" y="-276.09517996651766" as="targetPoint" />
          </mxGeometry>
        </mxCell>
        <mxCell id="ymwuQP8FwIJ5a87mYlli-258" value="" style="endArrow=none;html=1;rounded=0;" parent="1" source="ymwuQP8FwIJ5a87mYlli-214" target="ymwuQP8FwIJ5a87mYlli-226" edge="1">
          <mxGeometry relative="1" as="geometry">
            <mxPoint x="4059.6826171875" y="-254.09517996651766" as="sourcePoint" />
            <mxPoint x="4178.6826171875" y="-240.09517996651766" as="targetPoint" />
          </mxGeometry>
        </mxCell>
        <mxCell id="ymwuQP8FwIJ5a87mYlli-260" value="" style="endArrow=none;html=1;rounded=0;" parent="1" source="ymwuQP8FwIJ5a87mYlli-228" edge="1">
          <mxGeometry relative="1" as="geometry">
            <mxPoint x="3363.1826171875" y="-60.09517996651766" as="sourcePoint" />
            <mxPoint x="3512.6826171875" y="-84.76184663318418" as="targetPoint" />
          </mxGeometry>
        </mxCell>
        <mxCell id="ymwuQP8FwIJ5a87mYlli-261" value="" style="endArrow=none;html=1;rounded=0;" parent="1" source="ymwuQP8FwIJ5a87mYlli-229" edge="1">
          <mxGeometry relative="1" as="geometry">
            <mxPoint x="3352.6826171875" y="-34.09517996651766" as="sourcePoint" />
            <mxPoint x="3512.6826171875" y="-65.76184663318418" as="targetPoint" />
          </mxGeometry>
        </mxCell>
        <mxCell id="ymwuQP8FwIJ5a87mYlli-262" value="" style="endArrow=none;html=1;rounded=0;" parent="1" edge="1">
          <mxGeometry relative="1" as="geometry">
            <mxPoint x="3482.55396927099" y="209.61661942328124" as="sourcePoint" />
            <mxPoint x="3517.0826171874996" y="224.90482003348234" as="targetPoint" />
          </mxGeometry>
        </mxCell>
        <mxCell id="ymwuQP8FwIJ5a87mYlli-263" value="" style="endArrow=none;html=1;rounded=0;" parent="1" source="ymwuQP8FwIJ5a87mYlli-236" edge="1">
          <mxGeometry relative="1" as="geometry">
            <mxPoint x="3470.6826171875" y="268.90482003348234" as="sourcePoint" />
            <mxPoint x="3512.6826171875" y="244.90482003348234" as="targetPoint" />
          </mxGeometry>
        </mxCell>
        <mxCell id="ymwuQP8FwIJ5a87mYlli-264" value="" style="endArrow=none;html=1;rounded=0;" parent="1" source="ymwuQP8FwIJ5a87mYlli-232" edge="1">
          <mxGeometry relative="1" as="geometry">
            <mxPoint x="3480.6826171875" y="278.90482003348234" as="sourcePoint" />
            <mxPoint x="3512.6826171875" y="259.85047220739534" as="targetPoint" />
          </mxGeometry>
        </mxCell>
        <mxCell id="ymwuQP8FwIJ5a87mYlli-265" value="" style="endArrow=none;html=1;rounded=0;" parent="1" source="ymwuQP8FwIJ5a87mYlli-234" edge="1">
          <mxGeometry relative="1" as="geometry">
            <mxPoint x="3490.6826171875" y="288.90482003348234" as="sourcePoint" />
            <mxPoint x="3548.9326171875" y="264.90482003348234" as="targetPoint" />
          </mxGeometry>
        </mxCell>
        <mxCell id="ymwuQP8FwIJ5a87mYlli-266" value="" style="endArrow=none;html=1;rounded=0;" parent="1" source="ymwuQP8FwIJ5a87mYlli-233" edge="1">
          <mxGeometry relative="1" as="geometry">
            <mxPoint x="3500.6826171875" y="298.90482003348234" as="sourcePoint" />
            <mxPoint x="3562.6826171875" y="264.90482003348234" as="targetPoint" />
          </mxGeometry>
        </mxCell>
        <mxCell id="ymwuQP8FwIJ5a87mYlli-267" value="" style="endArrow=none;html=1;rounded=0;" parent="1" source="ymwuQP8FwIJ5a87mYlli-235" edge="1">
          <mxGeometry relative="1" as="geometry">
            <mxPoint x="3510.6826171875" y="308.90482003348234" as="sourcePoint" />
            <mxPoint x="3575.4826171875" y="264.90482003348234" as="targetPoint" />
          </mxGeometry>
        </mxCell>
        <mxCell id="ymwuQP8FwIJ5a87mYlli-268" value="" style="endArrow=none;html=1;rounded=0;" parent="1" target="ymwuQP8FwIJ5a87mYlli-237" edge="1">
          <mxGeometry relative="1" as="geometry">
            <mxPoint x="3591.2577710971545" y="264.90482003348234" as="sourcePoint" />
            <mxPoint x="3572.6826171875" y="311.90482003348234" as="targetPoint" />
          </mxGeometry>
        </mxCell>
        <mxCell id="ymwuQP8FwIJ5a87mYlli-269" value="" style="endArrow=none;html=1;rounded=0;" parent="1" source="ymwuQP8FwIJ5a87mYlli-231" edge="1">
          <mxGeometry relative="1" as="geometry">
            <mxPoint x="3472.6826171875" y="19.904820033482338" as="sourcePoint" />
            <mxPoint x="3535.409889914773" y="-45.09517996651766" as="targetPoint" />
          </mxGeometry>
        </mxCell>
        <mxCell id="ymwuQP8FwIJ5a87mYlli-270" value="" style="endArrow=none;html=1;rounded=0;" parent="1" source="ymwuQP8FwIJ5a87mYlli-238" target="ymwuQP8FwIJ5a87mYlli-301" edge="1">
          <mxGeometry relative="1" as="geometry">
            <mxPoint x="4108.6826171875" y="286.90482003348234" as="sourcePoint" />
            <mxPoint x="4182.968331473214" y="214.90482003348234" as="targetPoint" />
          </mxGeometry>
        </mxCell>
        <mxCell id="ymwuQP8FwIJ5a87mYlli-271" value="" style="endArrow=none;html=1;rounded=0;" parent="1" source="SrKy8WlbvXvoebuaYB2F-2" target="ymwuQP8FwIJ5a87mYlli-301" edge="1">
          <mxGeometry relative="1" as="geometry">
            <mxPoint x="4040.852782590773" y="299.6042776935483" as="sourcePoint" />
            <mxPoint x="4196.1826171875" y="214.90482003348234" as="targetPoint" />
          </mxGeometry>
        </mxCell>
        <mxCell id="ymwuQP8FwIJ5a87mYlli-272" value="" style="endArrow=none;html=1;rounded=0;" parent="1" source="SrKy8WlbvXvoebuaYB2F-1" target="ymwuQP8FwIJ5a87mYlli-301" edge="1">
          <mxGeometry relative="1" as="geometry">
            <mxPoint x="4091" y="272" as="sourcePoint" />
            <mxPoint x="4212.015950520833" y="214.90482003348234" as="targetPoint" />
          </mxGeometry>
        </mxCell>
        <mxCell id="ymwuQP8FwIJ5a87mYlli-273" value="" style="endArrow=none;html=1;rounded=0;" parent="1" source="ymwuQP8FwIJ5a87mYlli-241" target="ymwuQP8FwIJ5a87mYlli-301" edge="1">
          <mxGeometry relative="1" as="geometry">
            <mxPoint x="4138.6826171875" y="316.90482003348234" as="sourcePoint" />
            <mxPoint x="4238.6826171875" y="213.65482003348234" as="targetPoint" />
          </mxGeometry>
        </mxCell>
        <mxCell id="ymwuQP8FwIJ5a87mYlli-274" value="" style="endArrow=none;html=1;rounded=0;" parent="1" source="ymwuQP8FwIJ5a87mYlli-216" target="ymwuQP8FwIJ5a87mYlli-244" edge="1">
          <mxGeometry relative="1" as="geometry">
            <mxPoint x="4395.6826171875" y="-30.095179966517662" as="sourcePoint" />
            <mxPoint x="4464.6826171875" y="21.904820033482338" as="targetPoint" />
          </mxGeometry>
        </mxCell>
        <mxCell id="ymwuQP8FwIJ5a87mYlli-275" value="" style="endArrow=none;html=1;rounded=0;" parent="1" source="ymwuQP8FwIJ5a87mYlli-216" target="ymwuQP8FwIJ5a87mYlli-243" edge="1">
          <mxGeometry relative="1" as="geometry">
            <mxPoint x="4405.6826171875" y="-20.095179966517662" as="sourcePoint" />
            <mxPoint x="4474.6826171875" y="31.904820033482338" as="targetPoint" />
          </mxGeometry>
        </mxCell>
        <mxCell id="ymwuQP8FwIJ5a87mYlli-276" value="" style="endArrow=none;html=1;rounded=0;" parent="1" source="ymwuQP8FwIJ5a87mYlli-216" target="ymwuQP8FwIJ5a87mYlli-242" edge="1">
          <mxGeometry relative="1" as="geometry">
            <mxPoint x="4415.6826171875" y="-10.095179966517662" as="sourcePoint" />
            <mxPoint x="4484.6826171875" y="41.90482003348234" as="targetPoint" />
          </mxGeometry>
        </mxCell>
        <mxCell id="ymwuQP8FwIJ5a87mYlli-277" value="" style="endArrow=none;html=1;rounded=0;" parent="1" source="ymwuQP8FwIJ5a87mYlli-216" target="ymwuQP8FwIJ5a87mYlli-227" edge="1">
          <mxGeometry relative="1" as="geometry">
            <mxPoint x="4425.6826171875" y="-0.09517996651766225" as="sourcePoint" />
            <mxPoint x="4494.6826171875" y="51.90482003348234" as="targetPoint" />
          </mxGeometry>
        </mxCell>
        <mxCell id="ymwuQP8FwIJ5a87mYlli-278" value="" style="endArrow=none;html=1;rounded=0;exitX=1;exitY=0.5;exitDx=0;exitDy=0;" parent="1" source="ymwuQP8FwIJ5a87mYlli-246" target="ymwuQP8FwIJ5a87mYlli-214" edge="1">
          <mxGeometry relative="1" as="geometry">
            <mxPoint x="3768.6826171875" y="-30.095179966517662" as="sourcePoint" />
            <mxPoint x="3928.6826171875" y="-30.095179966517662" as="targetPoint" />
          </mxGeometry>
        </mxCell>
        <mxCell id="TDinRQ2YjaR9fbdQPydo-6" value="&lt;font style=&quot;font-size: 20px;&quot;&gt;M&lt;/font&gt;" style="edgeLabel;html=1;align=center;verticalAlign=middle;resizable=0;points=[];fontSize=11;fontFamily=Helvetica;fontColor=default;" parent="ymwuQP8FwIJ5a87mYlli-278" vertex="1" connectable="0">
          <mxGeometry x="-0.6527" relative="1" as="geometry">
            <mxPoint as="offset" />
          </mxGeometry>
        </mxCell>
        <mxCell id="ymwuQP8FwIJ5a87mYlli-279" value="" style="endArrow=none;html=1;rounded=0;entryX=0;entryY=0.5;entryDx=0;entryDy=0;" parent="1" target="ymwuQP8FwIJ5a87mYlli-246" edge="1">
          <mxGeometry relative="1" as="geometry">
            <mxPoint x="3583.7352487664475" y="-85.09517996651766" as="sourcePoint" />
            <mxPoint x="3812.6826171875" y="-60.09517996651766" as="targetPoint" />
          </mxGeometry>
        </mxCell>
        <mxCell id="TDinRQ2YjaR9fbdQPydo-7" value="&lt;font style=&quot;font-size: 20px;&quot;&gt;N&lt;/font&gt;" style="edgeLabel;html=1;align=center;verticalAlign=middle;resizable=0;points=[];fontSize=11;fontFamily=Helvetica;fontColor=default;" parent="ymwuQP8FwIJ5a87mYlli-279" vertex="1" connectable="0">
          <mxGeometry x="0.3533" relative="1" as="geometry">
            <mxPoint as="offset" />
          </mxGeometry>
        </mxCell>
        <mxCell id="ymwuQP8FwIJ5a87mYlli-280" value="" style="endArrow=none;html=1;rounded=0;" parent="1" target="ymwuQP8FwIJ5a87mYlli-214" edge="1">
          <mxGeometry relative="1" as="geometry">
            <mxPoint x="3622.6826171875" y="-260.09517996651766" as="sourcePoint" />
            <mxPoint x="3928.6826171875" y="-30.095179966517662" as="targetPoint" />
          </mxGeometry>
        </mxCell>
        <mxCell id="TDinRQ2YjaR9fbdQPydo-9" value="&lt;font style=&quot;font-size: 20px;&quot;&gt;1&lt;/font&gt;" style="edgeLabel;html=1;align=center;verticalAlign=middle;resizable=0;points=[];fontSize=11;fontFamily=Helvetica;fontColor=default;" parent="ymwuQP8FwIJ5a87mYlli-280" vertex="1" connectable="0">
          <mxGeometry x="-0.7605" y="-2" relative="1" as="geometry">
            <mxPoint as="offset" />
          </mxGeometry>
        </mxCell>
        <mxCell id="ymwuQP8FwIJ5a87mYlli-281" value="" style="endArrow=none;html=1;rounded=0;" parent="1" source="ymwuQP8FwIJ5a87mYlli-302" target="ymwuQP8FwIJ5a87mYlli-214" edge="1">
          <mxGeometry relative="1" as="geometry">
            <mxPoint x="3998.6826171875" y="-160.09517996651766" as="sourcePoint" />
            <mxPoint x="3968.6826171875" y="-228.09517996651766" as="targetPoint" />
          </mxGeometry>
        </mxCell>
        <mxCell id="TDinRQ2YjaR9fbdQPydo-10" value="&lt;font style=&quot;font-size: 20px;&quot;&gt;1&lt;/font&gt;" style="edgeLabel;html=1;align=center;verticalAlign=middle;resizable=0;points=[];fontSize=11;fontFamily=Helvetica;fontColor=default;" parent="ymwuQP8FwIJ5a87mYlli-281" vertex="1" connectable="0">
          <mxGeometry x="0.0186" relative="1" as="geometry">
            <mxPoint as="offset" />
          </mxGeometry>
        </mxCell>
        <mxCell id="ymwuQP8FwIJ5a87mYlli-282" value="" style="endArrow=none;html=1;rounded=0;exitX=0;exitY=0.5;exitDx=0;exitDy=0;" parent="1" source="ymwuQP8FwIJ5a87mYlli-245" target="ymwuQP8FwIJ5a87mYlli-214" edge="1">
          <mxGeometry relative="1" as="geometry">
            <mxPoint x="3769.6826171875" y="-170.09517996651766" as="sourcePoint" />
            <mxPoint x="3978.6826171875" y="-218.09517996651766" as="targetPoint" />
          </mxGeometry>
        </mxCell>
        <mxCell id="TDinRQ2YjaR9fbdQPydo-12" value="&lt;font style=&quot;font-size: 20px;&quot;&gt;1&lt;/font&gt;" style="edgeLabel;html=1;align=center;verticalAlign=middle;resizable=0;points=[];fontSize=11;fontFamily=Helvetica;fontColor=default;" parent="ymwuQP8FwIJ5a87mYlli-282" vertex="1" connectable="0">
          <mxGeometry x="0.1087" y="-1" relative="1" as="geometry">
            <mxPoint as="offset" />
          </mxGeometry>
        </mxCell>
        <mxCell id="ymwuQP8FwIJ5a87mYlli-283" value="" style="endArrow=none;html=1;rounded=0;entryX=1;entryY=0.5;entryDx=0;entryDy=0;" parent="1" source="ymwuQP8FwIJ5a87mYlli-216" target="ymwuQP8FwIJ5a87mYlli-245" edge="1">
          <mxGeometry relative="1" as="geometry">
            <mxPoint x="3789.6826171875" y="-150.09517996651766" as="sourcePoint" />
            <mxPoint x="3998.6826171875" y="-198.09517996651766" as="targetPoint" />
          </mxGeometry>
        </mxCell>
        <mxCell id="TDinRQ2YjaR9fbdQPydo-13" value="&lt;font style=&quot;font-size: 20px;&quot;&gt;N&lt;/font&gt;" style="edgeLabel;html=1;align=center;verticalAlign=middle;resizable=0;points=[];fontSize=11;fontFamily=Helvetica;fontColor=default;" parent="ymwuQP8FwIJ5a87mYlli-283" vertex="1" connectable="0">
          <mxGeometry x="0.6239" y="-3" relative="1" as="geometry">
            <mxPoint x="7" y="17" as="offset" />
          </mxGeometry>
        </mxCell>
        <mxCell id="ymwuQP8FwIJ5a87mYlli-284" value="" style="endArrow=none;html=1;rounded=0;entryX=0;entryY=0.5;entryDx=0;entryDy=0;" parent="1" target="ymwuQP8FwIJ5a87mYlli-247" edge="1">
          <mxGeometry relative="1" as="geometry">
            <mxPoint x="3612.6826171875" y="-65.09517996651766" as="sourcePoint" />
            <mxPoint x="4008.6826171875" y="-188.09517996651766" as="targetPoint" />
          </mxGeometry>
        </mxCell>
        <mxCell id="TDinRQ2YjaR9fbdQPydo-4" value="&lt;font style=&quot;font-size: 20px;&quot;&gt;1&lt;/font&gt;" style="edgeLabel;html=1;align=center;verticalAlign=middle;resizable=0;points=[];fontSize=11;fontFamily=Helvetica;fontColor=default;" parent="ymwuQP8FwIJ5a87mYlli-284" vertex="1" connectable="0">
          <mxGeometry x="-0.1165" y="1" relative="1" as="geometry">
            <mxPoint as="offset" />
          </mxGeometry>
        </mxCell>
        <mxCell id="ymwuQP8FwIJ5a87mYlli-285" value="" style="endArrow=none;html=1;rounded=0;" parent="1" edge="1">
          <mxGeometry relative="1" as="geometry">
            <mxPoint x="3562.6826171875" y="-45.09517996651766" as="sourcePoint" />
            <mxPoint x="3562.6826171875" y="79.90482003348234" as="targetPoint" />
          </mxGeometry>
        </mxCell>
        <mxCell id="TDinRQ2YjaR9fbdQPydo-17" value="&lt;font style=&quot;font-size: 20px;&quot;&gt;1&lt;/font&gt;" style="edgeLabel;html=1;align=center;verticalAlign=middle;resizable=0;points=[];fontSize=11;fontFamily=Helvetica;fontColor=default;" parent="ymwuQP8FwIJ5a87mYlli-285" vertex="1" connectable="0">
          <mxGeometry x="-0.2903" relative="1" as="geometry">
            <mxPoint as="offset" />
          </mxGeometry>
        </mxCell>
        <mxCell id="ymwuQP8FwIJ5a87mYlli-286" value="" style="endArrow=none;html=1;rounded=0;exitX=1;exitY=0.5;exitDx=0;exitDy=0;" parent="1" source="ymwuQP8FwIJ5a87mYlli-248" target="ymwuQP8FwIJ5a87mYlli-216" edge="1">
          <mxGeometry relative="1" as="geometry">
            <mxPoint x="4198.6826171875" y="79.90482003348234" as="sourcePoint" />
            <mxPoint x="4358.6826171875" y="79.90482003348234" as="targetPoint" />
          </mxGeometry>
        </mxCell>
        <mxCell id="TDinRQ2YjaR9fbdQPydo-30" value="&lt;font style=&quot;font-size: 20px;&quot;&gt;M&lt;/font&gt;" style="edgeLabel;html=1;align=center;verticalAlign=middle;resizable=0;points=[];fontSize=11;fontFamily=Helvetica;fontColor=default;" parent="ymwuQP8FwIJ5a87mYlli-286" vertex="1" connectable="0">
          <mxGeometry x="-0.3054" y="1" relative="1" as="geometry">
            <mxPoint as="offset" />
          </mxGeometry>
        </mxCell>
        <mxCell id="ymwuQP8FwIJ5a87mYlli-287" value="" style="endArrow=none;html=1;rounded=0;entryX=0;entryY=0.5;entryDx=0;entryDy=0;" parent="1" target="ymwuQP8FwIJ5a87mYlli-248" edge="1">
          <mxGeometry relative="1" as="geometry">
            <mxPoint x="3612.6826171875" y="231.01593114459342" as="sourcePoint" />
            <mxPoint x="3928.6826171875" y="149.90482003348234" as="targetPoint" />
          </mxGeometry>
        </mxCell>
        <mxCell id="TDinRQ2YjaR9fbdQPydo-27" value="&lt;font style=&quot;font-size: 20px;&quot;&gt;N&lt;/font&gt;" style="edgeLabel;html=1;align=center;verticalAlign=middle;resizable=0;points=[];fontSize=11;fontFamily=Helvetica;fontColor=default;" parent="ymwuQP8FwIJ5a87mYlli-287" vertex="1" connectable="0">
          <mxGeometry x="0.4146" relative="1" as="geometry">
            <mxPoint as="offset" />
          </mxGeometry>
        </mxCell>
        <mxCell id="ymwuQP8FwIJ5a87mYlli-292" value="" style="endArrow=none;html=1;rounded=0;" parent="1" source="ymwuQP8FwIJ5a87mYlli-247" target="ymwuQP8FwIJ5a87mYlli-216" edge="1">
          <mxGeometry relative="1" as="geometry">
            <mxPoint x="3978.6826171875" y="-61.27517996651767" as="sourcePoint" />
            <mxPoint x="4138.6826171875" y="-61.27517996651767" as="targetPoint" />
          </mxGeometry>
        </mxCell>
        <mxCell id="TDinRQ2YjaR9fbdQPydo-5" value="&lt;font style=&quot;font-size: 20px;&quot;&gt;N&lt;/font&gt;" style="edgeLabel;html=1;align=center;verticalAlign=middle;resizable=0;points=[];fontSize=11;fontFamily=Helvetica;fontColor=default;" parent="ymwuQP8FwIJ5a87mYlli-292" vertex="1" connectable="0">
          <mxGeometry x="0.0345" y="5" relative="1" as="geometry">
            <mxPoint x="20" y="6" as="offset" />
          </mxGeometry>
        </mxCell>
        <mxCell id="ymwuQP8FwIJ5a87mYlli-301" value="comment" style="shape=ext;margin=3;double=1;whiteSpace=wrap;html=1;align=center;" parent="1" vertex="1">
          <mxGeometry x="3955.0026171874997" y="222.00482003348233" width="100" height="40" as="geometry" />
        </mxCell>
        <mxCell id="ymwuQP8FwIJ5a87mYlli-302" value="write" style="shape=rhombus;double=1;perimeter=rhombusPerimeter;whiteSpace=wrap;html=1;align=center;fillColor=#d5e8d4;strokeColor=#82b366;" parent="1" vertex="1">
          <mxGeometry x="3938.6826171875" y="-170.99517996651767" width="120" height="60" as="geometry" />
        </mxCell>
        <mxCell id="ymwuQP8FwIJ5a87mYlli-303" value="" style="shape=link;html=1;rounded=0;" parent="1" edge="1">
          <mxGeometry width="100" relative="1" as="geometry">
            <mxPoint x="3562.6826171875" y="139.90482003348234" as="sourcePoint" />
            <mxPoint x="3562.6826171875" y="224.90482003348234" as="targetPoint" />
            <Array as="points" />
          </mxGeometry>
        </mxCell>
        <mxCell id="TDinRQ2YjaR9fbdQPydo-18" value="&lt;font style=&quot;font-size: 20px;&quot;&gt;N&lt;/font&gt;" style="edgeLabel;html=1;align=center;verticalAlign=middle;resizable=0;points=[];fontSize=11;fontFamily=Helvetica;fontColor=default;" parent="ymwuQP8FwIJ5a87mYlli-303" vertex="1" connectable="0">
          <mxGeometry x="-0.1154" y="1" relative="1" as="geometry">
            <mxPoint as="offset" />
          </mxGeometry>
        </mxCell>
        <mxCell id="ymwuQP8FwIJ5a87mYlli-306" value="" style="shape=link;html=1;rounded=0;" parent="1" edge="1">
          <mxGeometry width="100" relative="1" as="geometry">
            <mxPoint x="3562.6826171875" y="-230.09517996651766" as="sourcePoint" />
            <mxPoint x="3562.6826171875" y="-85.09517996651766" as="targetPoint" />
          </mxGeometry>
        </mxCell>
        <mxCell id="TDinRQ2YjaR9fbdQPydo-8" value="&lt;font style=&quot;font-size: 20px;&quot;&gt;1&lt;/font&gt;" style="edgeLabel;html=1;align=center;verticalAlign=middle;resizable=0;points=[];fontSize=11;fontFamily=Helvetica;fontColor=default;" parent="ymwuQP8FwIJ5a87mYlli-306" vertex="1" connectable="0">
          <mxGeometry x="-0.6041" relative="1" as="geometry">
            <mxPoint as="offset" />
          </mxGeometry>
        </mxCell>
        <mxCell id="TDinRQ2YjaR9fbdQPydo-3" style="edgeStyle=none;shape=link;rounded=0;orthogonalLoop=1;jettySize=auto;html=1;labelBackgroundColor=default;strokeColor=default;align=center;verticalAlign=middle;fontFamily=Helvetica;fontSize=11;fontColor=default;endArrow=none;" parent="1" source="ymwuQP8FwIJ5a87mYlli-307" target="ymwuQP8FwIJ5a87mYlli-301" edge="1">
          <mxGeometry relative="1" as="geometry" />
        </mxCell>
        <mxCell id="TDinRQ2YjaR9fbdQPydo-26" value="&lt;font style=&quot;font-size: 20px;&quot;&gt;N&lt;/font&gt;" style="edgeLabel;html=1;align=center;verticalAlign=middle;resizable=0;points=[];fontSize=11;fontFamily=Helvetica;fontColor=default;" parent="TDinRQ2YjaR9fbdQPydo-3" vertex="1" connectable="0">
          <mxGeometry x="-0.1286" y="5" relative="1" as="geometry">
            <mxPoint as="offset" />
          </mxGeometry>
        </mxCell>
        <mxCell id="ymwuQP8FwIJ5a87mYlli-307" value="has" style="shape=rhombus;double=1;perimeter=rhombusPerimeter;whiteSpace=wrap;html=1;align=center;fillColor=#d5e8d4;strokeColor=#82b366;" parent="1" vertex="1">
          <mxGeometry x="3772.6826171875" y="214.90482003348234" width="120" height="60" as="geometry" />
        </mxCell>
        <mxCell id="ymwuQP8FwIJ5a87mYlli-308" value="" style="endArrow=none;html=1;rounded=0;" parent="1" source="ymwuQP8FwIJ5a87mYlli-307" target="ymwuQP8FwIJ5a87mYlli-351" edge="1">
          <mxGeometry width="50" height="50" relative="1" as="geometry">
            <mxPoint x="3898.6826171875" y="129.90482003348234" as="sourcePoint" />
            <mxPoint x="4360" y="76" as="targetPoint" />
          </mxGeometry>
        </mxCell>
        <mxCell id="TDinRQ2YjaR9fbdQPydo-25" value="&lt;font style=&quot;font-size: 20px;&quot;&gt;1&lt;/font&gt;" style="edgeLabel;html=1;align=center;verticalAlign=middle;resizable=0;points=[];fontSize=11;fontFamily=Helvetica;fontColor=default;" parent="ymwuQP8FwIJ5a87mYlli-308" vertex="1" connectable="0">
          <mxGeometry x="-0.2167" y="1" relative="1" as="geometry">
            <mxPoint as="offset" />
          </mxGeometry>
        </mxCell>
        <mxCell id="ymwuQP8FwIJ5a87mYlli-321" value="" style="endArrow=none;html=1;rounded=0;" parent="1" source="ymwuQP8FwIJ5a87mYlli-214" target="ymwuQP8FwIJ5a87mYlli-323" edge="1">
          <mxGeometry relative="1" as="geometry">
            <mxPoint x="4098.6826171875" y="-290.09517996651766" as="sourcePoint" />
            <mxPoint x="4240.6826171875" y="-278.09517996651766" as="targetPoint" />
          </mxGeometry>
        </mxCell>
        <mxCell id="ymwuQP8FwIJ5a87mYlli-323" value="is_active" style="ellipse;whiteSpace=wrap;html=1;align=center;" parent="1" vertex="1">
          <mxGeometry x="4198.6826171875" y="-320.09517996651766" width="100" height="40" as="geometry" />
        </mxCell>
        <mxCell id="ymwuQP8FwIJ5a87mYlli-324" value="quantity" style="ellipse;whiteSpace=wrap;html=1;align=center;" parent="1" vertex="1">
          <mxGeometry x="4058.6826171875" y="159.90482003348234" width="100" height="40" as="geometry" />
        </mxCell>
        <mxCell id="ymwuQP8FwIJ5a87mYlli-325" value="" style="endArrow=none;html=1;rounded=0;" parent="1" source="ymwuQP8FwIJ5a87mYlli-248" target="ymwuQP8FwIJ5a87mYlli-324" edge="1">
          <mxGeometry relative="1" as="geometry">
            <mxPoint x="4248.6826171875" y="149.90482003348234" as="sourcePoint" />
            <mxPoint x="4408.6826171875" y="149.90482003348234" as="targetPoint" />
          </mxGeometry>
        </mxCell>
        <mxCell id="ymwuQP8FwIJ5a87mYlli-327" style="edgeStyle=none;shape=connector;rounded=0;orthogonalLoop=1;jettySize=auto;html=1;labelBackgroundColor=default;strokeColor=default;align=center;verticalAlign=middle;fontFamily=Helvetica;fontSize=11;fontColor=default;endArrow=none;" parent="1" source="ymwuQP8FwIJ5a87mYlli-328" target="ymwuQP8FwIJ5a87mYlli-332" edge="1">
          <mxGeometry relative="1" as="geometry" />
        </mxCell>
        <mxCell id="TDinRQ2YjaR9fbdQPydo-31" value="&lt;font style=&quot;font-size: 20px;&quot;&gt;1&lt;/font&gt;" style="edgeLabel;html=1;align=center;verticalAlign=middle;resizable=0;points=[];fontSize=11;fontFamily=Helvetica;fontColor=default;" parent="ymwuQP8FwIJ5a87mYlli-327" vertex="1" connectable="0">
          <mxGeometry x="-0.2521" relative="1" as="geometry">
            <mxPoint as="offset" />
          </mxGeometry>
        </mxCell>
        <mxCell id="ymwuQP8FwIJ5a87mYlli-328" value="coupon" style="shape=ext;double=1;rounded=0;whiteSpace=wrap;html=1;fontFamily=Helvetica;fontSize=11;fontColor=default;" parent="1" vertex="1">
          <mxGeometry x="3818.0026171875" y="47.90482003348234" width="100" height="60" as="geometry" />
        </mxCell>
        <mxCell id="ymwuQP8FwIJ5a87mYlli-331" style="edgeStyle=none;shape=connector;rounded=0;orthogonalLoop=1;jettySize=auto;html=1;labelBackgroundColor=default;strokeColor=default;align=center;verticalAlign=middle;fontFamily=Helvetica;fontSize=11;fontColor=default;endArrow=none;exitX=1;exitY=0.5;exitDx=0;exitDy=0;" parent="1" source="ymwuQP8FwIJ5a87mYlli-332" target="ymwuQP8FwIJ5a87mYlli-216" edge="1">
          <mxGeometry relative="1" as="geometry" />
        </mxCell>
        <mxCell id="TDinRQ2YjaR9fbdQPydo-32" value="&lt;font style=&quot;font-size: 20px;&quot;&gt;N&lt;/font&gt;" style="edgeLabel;html=1;align=center;verticalAlign=middle;resizable=0;points=[];fontSize=11;fontFamily=Helvetica;fontColor=default;" parent="ymwuQP8FwIJ5a87mYlli-331" vertex="1" connectable="0">
          <mxGeometry x="0.1767" y="-2" relative="1" as="geometry">
            <mxPoint as="offset" />
          </mxGeometry>
        </mxCell>
        <mxCell id="ymwuQP8FwIJ5a87mYlli-332" value="include" style="shape=rhombus;perimeter=rhombusPerimeter;whiteSpace=wrap;html=1;align=center;fillColor=#dae8fc;strokeColor=#6c8ebf;" parent="1" vertex="1">
          <mxGeometry x="4024.0026171874997" y="-26.095179966517655" width="120" height="60" as="geometry" />
        </mxCell>
        <mxCell id="ymwuQP8FwIJ5a87mYlli-337" style="rounded=0;orthogonalLoop=1;jettySize=auto;html=1;shape=link;exitX=0.5;exitY=1;exitDx=0;exitDy=0;" parent="1" source="ymwuQP8FwIJ5a87mYlli-338" target="ymwuQP8FwIJ5a87mYlli-328" edge="1">
          <mxGeometry relative="1" as="geometry">
            <mxPoint x="3861" y="-80" as="sourcePoint" />
          </mxGeometry>
        </mxCell>
        <mxCell id="TDinRQ2YjaR9fbdQPydo-16" value="&lt;font style=&quot;font-size: 20px;&quot;&gt;N&lt;/font&gt;" style="edgeLabel;html=1;align=center;verticalAlign=middle;resizable=0;points=[];fontSize=11;fontFamily=Helvetica;fontColor=default;" parent="ymwuQP8FwIJ5a87mYlli-337" vertex="1" connectable="0">
          <mxGeometry x="-0.0521" y="-3" relative="1" as="geometry">
            <mxPoint x="3" y="34" as="offset" />
          </mxGeometry>
        </mxCell>
        <mxCell id="ymwuQP8FwIJ5a87mYlli-338" value="release" style="shape=rhombus;double=1;perimeter=rhombusPerimeter;whiteSpace=wrap;html=1;align=center;fillColor=#d5e8d4;strokeColor=#82b366;" parent="1" vertex="1">
          <mxGeometry x="3808.0026171875" y="-170.99517996651767" width="120" height="60" as="geometry" />
        </mxCell>
        <mxCell id="ymwuQP8FwIJ5a87mYlli-339" value="update_time" style="ellipse;whiteSpace=wrap;html=1;align=center;" parent="1" vertex="1">
          <mxGeometry x="3627.0026171875" y="76.00482003348233" width="100" height="40" as="geometry" />
        </mxCell>
        <mxCell id="TDinRQ2YjaR9fbdQPydo-23" style="edgeStyle=none;shape=connector;rounded=0;orthogonalLoop=1;jettySize=auto;html=1;labelBackgroundColor=default;strokeColor=default;align=center;verticalAlign=middle;fontFamily=Helvetica;fontSize=11;fontColor=default;endArrow=none;" parent="1" source="ymwuQP8FwIJ5a87mYlli-340" target="ymwuQP8FwIJ5a87mYlli-328" edge="1">
          <mxGeometry relative="1" as="geometry" />
        </mxCell>
        <mxCell id="ymwuQP8FwIJ5a87mYlli-340" value="expire_date" style="ellipse;whiteSpace=wrap;html=1;align=center;" parent="1" vertex="1">
          <mxGeometry x="3637.0026171875" y="21.00482003348234" width="100" height="40" as="geometry" />
        </mxCell>
        <mxCell id="ymwuQP8FwIJ5a87mYlli-342" style="orthogonalLoop=1;jettySize=auto;html=1;endArrow=none;endFill=0;" parent="1" source="ymwuQP8FwIJ5a87mYlli-328" target="ymwuQP8FwIJ5a87mYlli-339" edge="1">
          <mxGeometry relative="1" as="geometry">
            <mxPoint x="3883.6826171875" y="59.90482003348234" as="sourcePoint" />
            <mxPoint x="3849.6826171875" y="130.90482003348234" as="targetPoint" />
          </mxGeometry>
        </mxCell>
        <mxCell id="ymwuQP8FwIJ5a87mYlli-345" value="" style="shape=link;html=1;rounded=0;" parent="1" source="ymwuQP8FwIJ5a87mYlli-302" target="ymwuQP8FwIJ5a87mYlli-301" edge="1">
          <mxGeometry width="100" relative="1" as="geometry">
            <mxPoint x="4008.6826171875" y="-85.09517996651766" as="sourcePoint" />
            <mxPoint x="4008.6826171875" y="234.90482003348234" as="targetPoint" />
          </mxGeometry>
        </mxCell>
        <mxCell id="TDinRQ2YjaR9fbdQPydo-11" value="&lt;font style=&quot;font-size: 20px;&quot;&gt;N&lt;/font&gt;" style="edgeLabel;html=1;align=center;verticalAlign=middle;resizable=0;points=[];fontSize=11;fontFamily=Helvetica;fontColor=default;" parent="ymwuQP8FwIJ5a87mYlli-345" vertex="1" connectable="0">
          <mxGeometry x="0.662" y="1" relative="1" as="geometry">
            <mxPoint as="offset" />
          </mxGeometry>
        </mxCell>
        <mxCell id="ymwuQP8FwIJ5a87mYlli-346" value="&lt;span style=&quot;border-bottom: 1px dotted&quot;&gt;coupon_uuid&lt;br&gt;&lt;/span&gt;" style="ellipse;whiteSpace=wrap;html=1;align=center;" parent="1" vertex="1">
          <mxGeometry x="3748.0026171875" y="-26.095179966517662" width="100" height="40" as="geometry" />
        </mxCell>
        <mxCell id="ymwuQP8FwIJ5a87mYlli-347" value="&lt;span style=&quot;border-bottom: 1px dotted&quot;&gt;product_uuid&lt;br&gt;&lt;/span&gt;" style="ellipse;whiteSpace=wrap;html=1;align=center;" parent="1" vertex="1">
          <mxGeometry x="3398.6826171875" y="174.90482003348234" width="100" height="40" as="geometry" />
        </mxCell>
        <mxCell id="ymwuQP8FwIJ5a87mYlli-348" value="is_actived" style="ellipse;whiteSpace=wrap;html=1;align=center;" parent="1" vertex="1">
          <mxGeometry x="3362.6826171875" y="-200.09517996651766" width="100" height="40" as="geometry" />
        </mxCell>
        <mxCell id="ymwuQP8FwIJ5a87mYlli-349" value="" style="endArrow=none;html=1;rounded=0;exitX=1;exitY=1;exitDx=0;exitDy=0;" parent="1" source="ymwuQP8FwIJ5a87mYlli-348" edge="1">
          <mxGeometry relative="1" as="geometry">
            <mxPoint x="3478.6826171875" y="-155.09517996651766" as="sourcePoint" />
            <mxPoint x="3543.806212693118" y="-86.09517996651766" as="targetPoint" />
          </mxGeometry>
        </mxCell>
        <mxCell id="ymwuQP8FwIJ5a87mYlli-350" value="shop" style="whiteSpace=wrap;html=1;align=center;" parent="1" vertex="1">
          <mxGeometry x="3512.6826171875" y="-87.09517996651766" width="100" height="40" as="geometry" />
        </mxCell>
        <mxCell id="ymwuQP8FwIJ5a87mYlli-351" value="product" style="whiteSpace=wrap;html=1;align=center;" parent="1" vertex="1">
          <mxGeometry x="3513.6826171875" y="224.90482003348234" width="100" height="40" as="geometry" />
        </mxCell>
        <mxCell id="ymwuQP8FwIJ5a87mYlli-352" value="has" style="shape=rhombus;perimeter=rhombusPerimeter;whiteSpace=wrap;html=1;align=center;fillColor=#dae8fc;strokeColor=#6c8ebf;" parent="1" vertex="1">
          <mxGeometry x="3503.6826171875" y="79.90482003348234" width="120" height="60" as="geometry" />
        </mxCell>
        <mxCell id="ymwuQP8FwIJ5a87mYlli-353" value="create" style="shape=rhombus;perimeter=rhombusPerimeter;whiteSpace=wrap;html=1;align=center;fillColor=#dae8fc;strokeColor=#6c8ebf;" parent="1" vertex="1">
          <mxGeometry x="3503.6826171875" y="-290.09517996651766" width="120" height="60" as="geometry" />
        </mxCell>
        <mxCell id="ymwuQP8FwIJ5a87mYlli-354" value="&lt;u&gt;shop_uuid&lt;/u&gt;" style="ellipse;whiteSpace=wrap;html=1;align=center;" parent="1" vertex="1">
          <mxGeometry x="3362.6826171875" y="-265.09517996651766" width="100" height="40" as="geometry" />
        </mxCell>
        <mxCell id="ymwuQP8FwIJ5a87mYlli-355" style="edgeStyle=none;shape=connector;rounded=0;orthogonalLoop=1;jettySize=auto;html=1;entryX=0.424;entryY=0.07;entryDx=0;entryDy=0;entryPerimeter=0;labelBackgroundColor=default;strokeColor=default;align=center;verticalAlign=middle;fontFamily=Helvetica;fontSize=11;fontColor=default;endArrow=none;" parent="1" source="ymwuQP8FwIJ5a87mYlli-354" target="ymwuQP8FwIJ5a87mYlli-350" edge="1">
          <mxGeometry relative="1" as="geometry" />
        </mxCell>
        <mxCell id="miGdJz1s9mUZIn-Ci3vM-1" value="role" style="ellipse;whiteSpace=wrap;html=1;align=center;" parent="1" vertex="1">
          <mxGeometry x="4226.0026171875" y="-266.99517996651764" width="100" height="40" as="geometry" />
        </mxCell>
        <mxCell id="miGdJz1s9mUZIn-Ci3vM-2" value="" style="endArrow=none;html=1;rounded=0;" parent="1" source="ymwuQP8FwIJ5a87mYlli-214" target="miGdJz1s9mUZIn-Ci3vM-1" edge="1">
          <mxGeometry relative="1" as="geometry">
            <mxPoint x="4320" y="-244" as="sourcePoint" />
            <mxPoint x="4449.6826171875" y="-230.09517996651766" as="targetPoint" />
          </mxGeometry>
        </mxCell>
        <mxCell id="TDinRQ2YjaR9fbdQPydo-22" style="edgeStyle=none;shape=connector;rounded=0;orthogonalLoop=1;jettySize=auto;html=1;labelBackgroundColor=default;strokeColor=default;align=center;verticalAlign=middle;fontFamily=Helvetica;fontSize=11;fontColor=default;endArrow=none;" parent="1" source="TDinRQ2YjaR9fbdQPydo-21" target="ymwuQP8FwIJ5a87mYlli-328" edge="1">
          <mxGeometry relative="1" as="geometry" />
        </mxCell>
        <mxCell id="TDinRQ2YjaR9fbdQPydo-21" value="coupon_code" style="ellipse;whiteSpace=wrap;html=1;align=center;" parent="1" vertex="1">
          <mxGeometry x="3638.6826171875" y="-34.99517996651766" width="100" height="40" as="geometry" />
        </mxCell>
        <mxCell id="TDinRQ2YjaR9fbdQPydo-33" value="" style="edgeStyle=none;shape=connector;rounded=0;orthogonalLoop=1;jettySize=auto;html=1;labelBackgroundColor=default;strokeColor=default;align=center;verticalAlign=middle;fontFamily=Helvetica;fontSize=11;fontColor=default;endArrow=none;" parent="1" source="ymwuQP8FwIJ5a87mYlli-346" target="ymwuQP8FwIJ5a87mYlli-328" edge="1">
          <mxGeometry relative="1" as="geometry">
            <mxPoint x="3674" y="45" as="sourcePoint" />
            <mxPoint x="3818" y="14" as="targetPoint" />
          </mxGeometry>
        </mxCell>
        <mxCell id="TDinRQ2YjaR9fbdQPydo-35" style="edgeStyle=none;shape=connector;rounded=0;orthogonalLoop=1;jettySize=auto;html=1;labelBackgroundColor=default;strokeColor=default;align=center;verticalAlign=middle;fontFamily=Helvetica;fontSize=11;fontColor=default;endArrow=none;" parent="1" source="ymwuQP8FwIJ5a87mYlli-343" target="ymwuQP8FwIJ5a87mYlli-328" edge="1">
          <mxGeometry relative="1" as="geometry" />
        </mxCell>
        <mxCell id="ymwuQP8FwIJ5a87mYlli-343" value="discount" style="ellipse;whiteSpace=wrap;html=1;align=center;" parent="1" vertex="1">
          <mxGeometry x="3683.0026171875" y="119.90482003348234" width="100" height="40" as="geometry" />
        </mxCell>
        <mxCell id="SrKy8WlbvXvoebuaYB2F-1" value="dislikes" style="ellipse;whiteSpace=wrap;html=1;dashed=1;" parent="1" vertex="1">
          <mxGeometry x="4111" y="249.99999999999997" width="108" height="61" as="geometry" />
        </mxCell>
        <mxCell id="SrKy8WlbvXvoebuaYB2F-2" value="likes" style="ellipse;whiteSpace=wrap;html=1;dashed=1;" parent="1" vertex="1">
          <mxGeometry x="3988.6800000000003" y="293" width="108" height="61" as="geometry" />
        </mxCell>
        <mxCell id="SrKy8WlbvXvoebuaYB2F-7" style="edgeStyle=none;shape=connector;rounded=0;orthogonalLoop=1;jettySize=auto;html=1;labelBackgroundColor=default;strokeColor=default;align=center;verticalAlign=middle;fontFamily=Helvetica;fontSize=11;fontColor=default;endArrow=none;" parent="1" source="SrKy8WlbvXvoebuaYB2F-5" target="ymwuQP8FwIJ5a87mYlli-301" edge="1">
          <mxGeometry relative="1" as="geometry" />
        </mxCell>
        <mxCell id="SrKy8WlbvXvoebuaYB2F-9" value="&lt;font style=&quot;font-size: 20px;&quot;&gt;M&lt;/font&gt;" style="edgeLabel;html=1;align=center;verticalAlign=middle;resizable=0;points=[];fontSize=11;fontFamily=Helvetica;fontColor=default;" parent="SrKy8WlbvXvoebuaYB2F-7" vertex="1" connectable="0">
          <mxGeometry x="-0.4475" y="2" relative="1" as="geometry">
            <mxPoint as="offset" />
          </mxGeometry>
        </mxCell>
        <mxCell id="SrKy8WlbvXvoebuaYB2F-11" style="edgeStyle=none;shape=connector;rounded=0;orthogonalLoop=1;jettySize=auto;html=1;labelBackgroundColor=default;strokeColor=default;align=center;verticalAlign=middle;fontFamily=Helvetica;fontSize=11;fontColor=default;endArrow=none;" parent="1" source="SrKy8WlbvXvoebuaYB2F-5" target="SrKy8WlbvXvoebuaYB2F-10" edge="1">
          <mxGeometry relative="1" as="geometry" />
        </mxCell>
        <mxCell id="SrKy8WlbvXvoebuaYB2F-5" value="react" style="shape=rhombus;perimeter=rhombusPerimeter;whiteSpace=wrap;html=1;align=center;fillColor=#dae8fc;strokeColor=#6c8ebf;" parent="1" vertex="1">
          <mxGeometry x="4322.0026171875" y="99.90482003348234" width="120" height="60" as="geometry" />
        </mxCell>
        <mxCell id="SrKy8WlbvXvoebuaYB2F-10" value="if_hates" style="ellipse;whiteSpace=wrap;html=1;align=center;strokeColor=#000000;" parent="1" vertex="1">
          <mxGeometry x="4285.0026171875" y="222.00482003348236" width="100" height="40" as="geometry" />
        </mxCell>
      </root>
    </mxGraphModel>
  </diagram>
</mxfile>
